<?xml version="1.0" standalone="no"?>
<!DOCTYPE svg PUBLIC "-//W3C//DTD SVG 20010904//EN"
 "http://www.w3.org/TR/2001/REC-SVG-20010904/DTD/svg10.dtd">
<svg version="1.0" xmlns="http://www.w3.org/2000/svg"
 width="7360.000000pt" height="4912.000000pt" viewBox="0 0 7360.000000 4912.000000"
 preserveAspectRatio="xMidYMid meet">

<g transform="translate(0.000000,4912.000000) scale(0.100000,-0.100000)"
fill="#000000" stroke="none">
<path d="M49410 19177 c0 -31 -4 -57 -10 -59 -6 -2 -4 -13 3 -28 10 -19 20
-24 40 -22 15 1 37 -3 49 -10 13 -7 31 -11 41 -9 16 2 18 -2 12 -28 -4 -17 -3
-31 2 -31 4 0 20 -11 34 -24 20 -18 25 -31 22 -50 -3 -14 -1 -26 3 -26 5 0 8
-20 6 -45 -2 -25 0 -45 6 -45 5 0 12 -9 15 -20 4 -17 11 -19 31 -14 38 9 73
-3 79 -27 5 -18 11 -21 39 -16 18 3 27 3 20 0 -17 -7 -5 -23 18 -23 10 0 21
-6 24 -12 4 -7 4 2 1 20 -3 21 0 32 8 32 8 0 8 3 -2 9 -7 5 -10 14 -6 21 4 6
-2 20 -14 31 -12 11 -18 25 -15 31 4 7 2 8 -4 4 -11 -7 -38 38 -34 56 1 4 -9
19 -23 34 -14 15 -22 31 -18 37 4 6 0 8 -10 4 -11 -4 -17 -1 -17 8 0 8 -7 18
-17 23 -9 6 -14 16 -10 25 6 16 -18 31 -34 22 -4 -3 -11 6 -15 20 -4 17 -11
24 -21 21 -8 -3 -11 -1 -8 4 3 6 -5 10 -20 10 -14 0 -28 7 -32 16 -3 8 -12 13
-20 9 -11 -3 -13 -1 -9 10 3 8 9 23 12 33 5 16 5 16 -6 -1 -6 -9 -16 -15 -21
-12 -5 4 -7 11 -3 16 3 6 -3 13 -15 16 -12 3 -21 10 -21 15 0 6 -7 8 -15 4 -8
-3 -14 0 -12 6 1 7 -6 14 -15 16 -16 3 -18 -4 -18 -51z"/>
<path d="M21945 19100 c-92 -20 -211 -136 -303 -296 -73 -126 -165 -364 -148
-382 3 -3 27 6 53 20 27 14 66 31 88 38 22 7 58 21 80 30 22 10 65 26 95 36
30 10 59 22 65 26 5 4 20 8 33 8 13 0 21 4 18 9 -4 5 -2 11 4 13 5 1 17 35 26
73 9 39 22 92 30 119 9 27 13 55 10 62 -6 16 11 60 32 87 9 9 11 17 6 17 -5 0
-10 19 -11 41 -2 23 -8 48 -14 55 -6 7 -8 17 -6 22 10 15 -27 29 -58 22z"/>
<path d="M49470 18985 c0 -8 7 -15 15 -15 8 0 15 7 15 15 0 8 -7 15 -15 15 -8
0 -15 -7 -15 -15z"/>
<path d="M49591 18854 c0 -11 3 -14 6 -6 3 7 2 16 -1 19 -3 4 -6 -2 -5 -13z"/>
<path d="M49550 18785 c0 -8 5 -15 10 -15 6 0 10 7 10 15 0 8 -4 15 -10 15 -5
0 -10 -7 -10 -15z"/>
<path d="M49598 18693 c7 -3 16 -2 19 1 4 3 -2 6 -13 5 -11 0 -14 -3 -6 -6z"/>
<path d="M25683 11628 c3 -9 11 -62 17 -118 24 -221 -31 -436 -164 -635 -78
-118 -126 -163 -336 -319 -146 -108 -285 -212 -429 -321 -97 -74 -93 -94 19
-83 50 5 89 4 99 -2 9 -6 11 -10 4 -10 -7 0 -13 -4 -13 -10 0 -11 63 -1 68 12
2 4 7 6 10 4 9 -4 149 89 314 209 265 193 393 368 465 630 23 86 27 120 27
245 1 86 -5 174 -13 215 -15 77 -48 174 -64 190 -7 7 -8 5 -4 -7z"/>
<path d="M46412 11373 c-68 -134 -100 -335 -82 -508 16 -156 113 -410 172
-453 10 -7 18 -19 18 -26 0 -7 22 -38 50 -69 27 -32 53 -63 57 -70 16 -24 234
-175 277 -190 16 -6 17 -5 6 8 -7 8 -16 13 -20 10 -4 -2 -13 7 -20 20 -7 14
-19 25 -26 25 -22 0 -20 33 5 58 17 17 27 20 34 13 6 -6 33 -11 59 -11 65 0
65 24 0 65 -300 187 -461 385 -524 643 -30 123 -31 345 -1 450 11 39 19 72 17
72 -2 0 -12 -17 -22 -37z m505 -1179 c-3 -3 -12 -4 -19 -1 -8 3 -5 6 6 6 11 1
17 -2 13 -5z"/>
<path d="M24670 10150 c0 -5 5 -10 10 -10 6 0 10 5 10 10 0 6 -4 10 -10 10 -5
0 -10 -4 -10 -10z"/>
<path d="M47015 8517 c-23 -65 -87 -195 -155 -312 -52 -90 -65 -109 -190 -280
-37 -49 -120 -164 -185 -255 -66 -91 -136 -185 -156 -210 -20 -25 -46 -63 -59
-85 -90 -156 -678 -946 -774 -1040 -45 -45 -187 -230 -209 -274 -9 -16 46 39
93 94 14 17 64 75 111 130 88 103 209 255 339 430 41 55 78 102 81 105 7 7
220 296 412 561 34 47 85 116 112 154 120 163 430 622 516 761 53 87 89 169
96 220 8 61 -11 61 -32 1z"/>
<path d="M45443 8102 c-65 -86 -127 -181 -122 -186 2 -2 31 30 64 72 60 75
120 170 113 178 -3 2 -27 -27 -55 -64z"/>
<path d="M44910 7355 c-7 -9 -11 -17 -9 -20 3 -2 10 5 17 15 14 24 10 26 -8 5z"/>
<path d="M44835 7252 c-42 -56 -245 -323 -295 -386 -8 -11 -33 -40 -56 -65
-22 -25 -87 -107 -144 -181 -57 -74 -136 -173 -175 -220 -92 -109 -109 -136
-100 -157 6 -16 8 -16 23 4 53 67 218 269 223 273 14 12 149 191 174 231 16
24 72 103 125 174 53 72 132 180 175 240 44 61 85 116 92 123 11 12 18 33 11
32 -2 0 -25 -31 -53 -68z"/>
</g>
</svg>
